M48
INCH
T01C0.02
T02C0.0276
T03C0.0315
T04C0.0354
T05C0.0433
%
T01
X-001000Y+005375
X-001875Y+005500
X-003000Y+005625
X-003000Y+006625
X-004169Y+005518
X-004169Y+003482
X-001250Y+003250
X-000750Y+002500
X+000750Y+002750
X+000750Y+003500
X+001500Y+003500
X+001125Y+004375
X+000750Y+004750
X+000625Y+005380
X+000625Y+006375
X+001125Y+007250
X+001125Y+007750
X+001875Y+006250
X+003500Y+006125
X+003500Y+005000
X+004750Y+007000
X+006125Y+006250
X+006750Y+009500
X+003125Y+008001
X-000875Y+009063
X-002875Y+009500
X-003500Y+009375
X-003500Y+008750
X-006000Y+009250
X-006000Y+006625
X+003500Y+002625
T02
X+006000Y+003750
X+006500Y+003750
X+006500Y+003250
X+006000Y+003250
X+006000Y+002750
X+006500Y+002750
X+006500Y+002250
X+006000Y+002250
X+006000Y+001750
X+006500Y+001750
X+002750Y+001500
X+002250Y+001500
X+001750Y+001500
X+001250Y+001500
X+001250Y+001000
X+001750Y+001000
X+002250Y+001000
X+002750Y+001000
X+000750Y+001000
X+000750Y+001500
T03
X+006750Y+007500
T04
X+000871Y+008250
X-000861Y+008250
X-006000Y+001000
T05
X-005000Y+001000
X-004000Y+001000
X-003000Y+001000
X-002000Y+001000
X-006000Y+002000
X-006000Y+003000
X-006000Y+004000
X-006000Y+005000
T00
M30
