G04 DipTrace Beta 2.9.0.0*
G04 Top.gbr*
%MOIN*%
G04 #@! TF.FileFunction,Copper,L1,Top*
G04 #@! TF.Part,Single*
%AMOUTLINE0*5,1,4,0,0,0.088583,-2E-6.0*%
G04 #@! TA.AperFunction,Conductor,NotC*
%ADD13C,0.015*%
%ADD14C,0.008*%
G04 #@! TA.AperFunction,CopperBalancing*
%ADD15C,0.01*%
%ADD16C,0.012008*%
G04 #@! TA.AperFunction,SMDPad,CuDef*
%ADD17R,0.03937X0.043307*%
%ADD18R,0.043307X0.03937*%
%ADD19R,0.019685X0.088583*%
%ADD20R,0.080709X0.137795*%
%ADD21R,0.080709X0.153543*%
G04 #@! TA.AperFunction,ComponentPad*
%ADD22C,0.055118*%
%ADD23C,0.042*%
%ADD24R,0.066929X0.066929*%
%ADD25C,0.066929*%
G04 #@! TA.AperFunction,SMDPad,CuDef*
%ADD26R,0.07874X0.062992*%
%ADD27R,0.070866X0.015748*%
%ADD29R,0.023622X0.043307*%
G04 #@! TA.AperFunction,ComponentPad*
%ADD30C,0.059055*%
G04 #@! TA.AperFunction,ViaPad*
%ADD31C,0.04*%
G04 #@! TA.AperFunction,ComponentPad*
%ADD67OUTLINE0*%
%FSLAX26Y26*%
G04*
G70*
G90*
G75*
G01*
G04 Top*
%LPD*%
X228346Y397638D2*
D13*
X347638D1*
X350000Y400000D1*
X228346Y397638D2*
X0D1*
X-97638D1*
X-100000Y400000D1*
X-112500D1*
X-162500Y450000D1*
X-462500D1*
X-468996Y456496D1*
X-475000Y462500D1*
Y600000D1*
X-454576Y620424D1*
X-450000Y625000D1*
Y693701D1*
X-454576Y620424D2*
X-404576D1*
X-350000Y675000D1*
Y733071D1*
X-500000Y100000D2*
Y275382D1*
Y425492D1*
X-468996Y456496D1*
X-600000Y200000D2*
X-575382D1*
X-500000Y275382D1*
X350000Y400000D2*
D14*
X375000D1*
X400000Y375000D1*
X600000D1*
X350000Y400000D2*
Y500000D1*
Y612500D2*
X306346D1*
X268778Y650068D1*
Y868841D1*
X299937Y900000D1*
X350197D1*
X-524803Y800000D2*
D13*
Y825197D1*
X-512500Y837500D1*
X-462500D1*
X-450000Y825000D1*
Y800000D1*
X-600000D2*
Y825000D1*
X-587500Y837500D1*
X-512500D1*
X-416929Y300000D2*
Y348180D1*
Y400000D1*
Y500000D2*
Y551820D1*
Y400000D2*
D3*
X-600000Y800000D2*
X-625000D1*
X-700000Y725000D1*
Y437500D1*
X-662500Y400000D1*
X-600000D1*
X-416929Y300000D2*
D3*
X63484Y737500D2*
D14*
Y763197D1*
X75287Y775000D1*
D13*
X112500D1*
X-287500Y950000D2*
X-337500D1*
X-350000Y937500D1*
X-450000Y837500D1*
Y800000D1*
X62500Y725000D2*
X112500D1*
X228346Y372047D2*
D14*
X290453D1*
X325000Y337500D1*
X345571D1*
X350000Y333071D1*
X-487402Y800000D2*
D13*
Y762598D1*
X-512500Y737500D1*
X-595571D1*
X-600000Y733071D1*
X228346Y372047D2*
D14*
X172047D1*
X150000Y350000D1*
X350197Y700000D2*
X312533D1*
X675000Y833071D2*
Y750000D1*
X0Y500000D2*
X50000D1*
X75000Y475000D1*
X675000Y833071D2*
X630660D1*
X562795Y900936D1*
Y900000D1*
X675000Y625000D2*
Y600000D1*
X712500Y562500D1*
Y200000D1*
X687500Y175000D1*
X650000D1*
X0Y423228D2*
Y425000D1*
X100000D1*
X112500Y437500D1*
X612500Y625000D2*
Y693823D1*
X556618D1*
X562795Y700000D1*
X606379Y625000D2*
X675000D1*
X228346Y500000D2*
X250000D1*
X325000Y575000D1*
X537500D1*
X687500Y425000D1*
Y337500D1*
X675000Y325000D1*
X650000D1*
X228346Y474409D2*
X274409D1*
X350000Y550000D1*
X525000D1*
X650000Y425000D1*
Y375000D1*
X0Y372047D2*
X52953D1*
X75000Y350000D1*
X-187500Y550000D2*
Y504429D1*
X-183071Y500000D1*
X0Y346457D2*
X-96457D1*
X-112500Y362500D1*
X-137500D1*
X-175000Y400000D1*
X-183071D1*
X0Y269685D2*
X-55315D1*
X-75000Y250000D1*
X-125000Y325000D2*
X-150000Y300000D1*
X-183071D1*
X-350000Y500000D2*
X-250000D1*
X-350000Y400000D2*
X-250000D1*
X-350000Y300000D2*
X-250000D1*
X228346Y346457D2*
X278543D1*
X312500Y312500D1*
Y262500D1*
X275000Y225000D1*
Y150000D1*
X0Y320866D2*
X-79134D1*
X-150000Y250000D1*
X-350000D1*
X-400000Y200000D1*
Y100000D1*
X228346Y295276D2*
X95276D1*
X75000Y275000D1*
X228354Y269685D2*
X119685D1*
X75000Y225000D1*
Y150000D1*
X228346Y320866D2*
X279134D1*
X287500Y312500D1*
Y262500D1*
X275000Y250000D1*
X225000D1*
X175000Y200000D1*
Y150000D1*
X0Y295276D2*
X-79724D1*
X-150000Y225000D1*
X-275000D1*
X-300000Y200000D1*
Y100000D1*
X31988Y737500D2*
Y668012D1*
X62500Y637500D1*
Y537962D2*
X175462Y425000D1*
X226575D1*
X228346Y423228D1*
Y448819D2*
X227165Y450000D1*
X175000D1*
X150000Y475000D1*
Y500000D1*
X492Y649508D1*
Y737500D1*
D31*
X350000Y500000D3*
Y612500D3*
X-416929Y551820D3*
Y348180D3*
D3*
X112500Y775000D3*
X-287500Y950000D3*
X112500Y725000D3*
X-350000Y937500D3*
X75000Y475000D3*
D3*
X112500Y437500D3*
X612500Y625000D3*
X75000Y350000D3*
X-187500Y550000D3*
X-75000Y250000D3*
X-125000Y325000D3*
X75000Y275000D3*
X62500Y637500D3*
Y537962D3*
X-100000Y537500D3*
X-600000Y662500D3*
X350000Y262500D3*
X-350000Y875000D3*
X-87500Y906251D3*
X150000Y350000D3*
X312533Y800084D3*
X-600000Y925000D3*
X475000Y700000D3*
X675000Y950000D3*
X187500Y625000D3*
X-300000Y562500D3*
Y662500D3*
X-685484Y965131D2*
D15*
X-377641D1*
X-133609D2*
X134703D1*
X254203D2*
X685484D1*
X-698766Y955262D2*
X-384984D1*
X-133609D2*
X134703D1*
X254203D2*
X698766D1*
X-707672Y945394D2*
X-388578D1*
X-133609D2*
X134703D1*
X254203D2*
X291422D1*
X408891D2*
X504078D1*
X621547D2*
X707672D1*
X-714547Y935525D2*
X-389516D1*
X-133609D2*
X134703D1*
X254203D2*
X291422D1*
X408891D2*
X504078D1*
X621547D2*
X635953D1*
X-718609Y925656D2*
X-399516D1*
X-133609D2*
X134703D1*
X254203D2*
X291422D1*
X408891D2*
X504078D1*
X621547D2*
X635953D1*
X-721734Y915787D2*
X-409359D1*
X-317359D2*
X-305922D1*
X-269078D2*
X-253109D1*
X-133609D2*
X134703D1*
X254203D2*
X282984D1*
X408891D2*
X504078D1*
X621547D2*
X635953D1*
X714047D2*
X721734D1*
X-722984Y905919D2*
X-419203D1*
X-327203D2*
X-253109D1*
X-133609D2*
X134703D1*
X254203D2*
X273141D1*
X408891D2*
X504078D1*
X621547D2*
X635953D1*
X714047D2*
X722984D1*
X-723922Y896050D2*
X-429047D1*
X-353766D2*
X-253109D1*
X-133609D2*
X134703D1*
X254203D2*
X263297D1*
X408891D2*
X504078D1*
X621547D2*
X635953D1*
X714047D2*
X723922D1*
X-723922Y886181D2*
X-438891D1*
X-363766D2*
X-253109D1*
X-133609D2*
X134703D1*
X408891D2*
X504078D1*
X621547D2*
X635953D1*
X714047D2*
X723922D1*
X-723922Y876312D2*
X-448734D1*
X-373609D2*
X-253109D1*
X-133609D2*
X134703D1*
X408891D2*
X504078D1*
X621547D2*
X635953D1*
X714047D2*
X723922D1*
X-723922Y866444D2*
X-458734D1*
X-383453D2*
X-253109D1*
X-133609D2*
X-107016D1*
X-65172D2*
X66266D1*
X107953D2*
X134703D1*
X408891D2*
X504078D1*
X629984D2*
X635953D1*
X714047D2*
X723922D1*
X-723922Y856575D2*
X-606078D1*
X-393297D2*
X-253109D1*
X-133609D2*
X-120453D1*
X-51734D2*
X52672D1*
X121547D2*
X134703D1*
X408891D2*
X504078D1*
X714047D2*
X723922D1*
X-723922Y846706D2*
X-615922D1*
X-403141D2*
X-253109D1*
X-133609D2*
X-127652D1*
X-44547D2*
X45641D1*
X128578D2*
X134703D1*
X292172D2*
X584391D1*
X714047D2*
X723922D1*
X-723922Y836837D2*
X-639047D1*
X-412984D2*
X-389047D1*
X-310953D2*
X-253109D1*
X-40641D2*
X41734D1*
X292172D2*
X594234D1*
X714047D2*
X723922D1*
X-723922Y826969D2*
X-639047D1*
X-418766D2*
X-389047D1*
X-310953D2*
X-253109D1*
X-39234D2*
X40172D1*
X292172D2*
X604078D1*
X714047D2*
X723922D1*
X-723922Y817100D2*
X-645453D1*
X-418766D2*
X-389047D1*
X-310953D2*
X-253109D1*
X-39859D2*
X40797D1*
X292172D2*
X613922D1*
X714047D2*
X723922D1*
X-723922Y807231D2*
X-655453D1*
X-418766D2*
X-389047D1*
X-310953D2*
X-253109D1*
X-42828D2*
X43766D1*
X292172D2*
X635953D1*
X714047D2*
X723922D1*
X-723922Y797362D2*
X-665297D1*
X-418766D2*
X-389047D1*
X-310953D2*
X-253109D1*
X-133609D2*
X-123891D1*
X292172D2*
X635953D1*
X714047D2*
X723922D1*
X-723922Y787493D2*
X-675141D1*
X-418766D2*
X-389047D1*
X-310953D2*
X-253109D1*
X-133609D2*
X-113578D1*
X292172D2*
X644234D1*
X705766D2*
X723922D1*
X-723922Y777625D2*
X-684984D1*
X-418766D2*
X-389047D1*
X-310953D2*
X-253109D1*
X-133609D2*
X-91703D1*
X292172D2*
X634859D1*
X715141D2*
X723922D1*
X-723922Y767756D2*
X-694828D1*
X-418766D2*
X-389047D1*
X-310953D2*
X-253109D1*
X-133609D2*
X-91703D1*
X292172D2*
X629547D1*
X-723922Y757887D2*
X-704672D1*
X-560953D2*
X-389047D1*
X-310953D2*
X-253109D1*
X-133609D2*
X-91703D1*
X292172D2*
X626734D1*
X-723922Y748018D2*
X-714672D1*
X-560953D2*
X-389047D1*
X-310953D2*
X-253109D1*
X-133609D2*
X-91703D1*
X408891D2*
X504078D1*
X-649234Y738150D2*
X-639047D1*
X-560953D2*
X-389047D1*
X-310953D2*
X-253109D1*
X-133609D2*
X-91703D1*
X408891D2*
X504078D1*
X621547D2*
X627671D1*
X-659078Y728281D2*
X-639047D1*
X-493609D2*
X-481234D1*
X-418766D2*
X-389047D1*
X-310953D2*
X-253109D1*
X-133609D2*
X-91703D1*
X408891D2*
X504078D1*
X621547D2*
X631266D1*
X718734D2*
X723886D1*
X-668922Y718412D2*
X-639047D1*
X-493609D2*
X-481234D1*
X-418766D2*
X-389047D1*
X-310953D2*
X-253109D1*
X-133609D2*
X-91703D1*
X408891D2*
X504078D1*
X621547D2*
X635953D1*
X714047D2*
X723922D1*
X-673141Y708543D2*
X-639047D1*
X-493609D2*
X-481234D1*
X-418766D2*
X-389047D1*
X-310953D2*
X-253109D1*
X-133609D2*
X-91703D1*
X408891D2*
X504078D1*
X630297D2*
X635953D1*
X714047D2*
X723922D1*
X-673141Y698675D2*
X-639047D1*
X-493609D2*
X-481234D1*
X-418766D2*
X-389047D1*
X-310953D2*
X-253109D1*
X-133609D2*
X-91703D1*
X408891D2*
X504078D1*
X714047D2*
X723922D1*
X-673141Y688806D2*
X-556078D1*
X-493609D2*
X-481234D1*
X-418766D2*
X-376859D1*
X-323141D2*
X-253109D1*
X-133609D2*
X-91703D1*
X92797D2*
X98615D1*
X126234D2*
X134703D1*
X408891D2*
X504078D1*
X714047D2*
X723922D1*
X-673141Y678937D2*
X-556078D1*
X-493609D2*
X-481234D1*
X-418766D2*
X-383734D1*
X-323141D2*
X-253109D1*
X-133609D2*
X-91703D1*
X92797D2*
X134703D1*
X408891D2*
X504078D1*
X714047D2*
X723922D1*
X-673141Y669068D2*
X-556078D1*
X-493609D2*
X-481234D1*
X-418766D2*
X-393578D1*
X-323766D2*
X-253109D1*
X-133609D2*
X-22953D1*
X85297D2*
X134703D1*
X408891D2*
X504078D1*
X714047D2*
X723922D1*
X-673141Y659199D2*
X-556078D1*
X-493609D2*
X-481234D1*
X-418766D2*
X-403422D1*
X-328453D2*
X-253109D1*
X-133609D2*
X-22953D1*
X95141D2*
X134703D1*
X408891D2*
X504078D1*
X714047D2*
X723922D1*
X-673141Y649331D2*
X-476859D1*
X-423141D2*
X-413266D1*
X-337984D2*
X-22953D1*
X99984D2*
X245328D1*
X361859D2*
X581734D1*
X714047D2*
X723922D1*
X-673141Y639462D2*
X-476859D1*
X-347984D2*
X-20453D1*
X101859D2*
X247984D1*
X378266D2*
X575953D1*
X714047D2*
X723922D1*
X-673141Y629593D2*
X-482953D1*
X-357828D2*
X-12328D1*
X101078D2*
X256578D1*
X385453D2*
X573453D1*
X714047D2*
X723922D1*
X-673141Y619724D2*
X-492953D1*
X-367672D2*
X-2328D1*
X97484D2*
X266422D1*
X388734D2*
X573453D1*
X714047D2*
X723922D1*
X-673141Y609856D2*
X-499984D1*
X-377516D2*
X7516D1*
X90141D2*
X276266D1*
X389359D2*
X576266D1*
X714047D2*
X723922D1*
X-673141Y599987D2*
X-501859D1*
X-387672D2*
X17359D1*
X82641D2*
X286266D1*
X387328D2*
X582359D1*
X714047D2*
X723922D1*
X-673141Y590118D2*
X-501859D1*
X-447203D2*
X-420609D1*
X-413354D2*
X27203D1*
X92484D2*
X304703D1*
X554984D2*
X595484D1*
X629516D2*
X635953D1*
X717484D2*
X723867D1*
X-673141Y580249D2*
X-501859D1*
X-390172D2*
X-212172D1*
X-162828D2*
X37047D1*
X102484D2*
X297516D1*
X564984D2*
X662047D1*
X-673141Y570381D2*
X-501859D1*
X-382359D2*
X-221078D1*
X-153922D2*
X40953D1*
X112328D2*
X287672D1*
X574828D2*
X671891D1*
X-673141Y560512D2*
X-501859D1*
X-378609D2*
X-225453D1*
X-149547D2*
X30484D1*
X122172D2*
X277828D1*
X584672D2*
X681891D1*
X-673141Y550643D2*
X-612172D1*
X-587828D2*
X-501859D1*
X-377516D2*
X-226859D1*
X-148141D2*
X25328D1*
X132016D2*
X267984D1*
X594516D2*
X689078D1*
X-673141Y540774D2*
X-633109D1*
X-566891D2*
X-501859D1*
X-379234D2*
X-225766D1*
X-149234D2*
X23141D1*
X141859D2*
X258141D1*
X604359D2*
X689078D1*
X-673141Y530906D2*
X-642641D1*
X-557359D2*
X-501859D1*
X-308922D2*
X-291078D1*
X-142047D2*
X23766D1*
X151703D2*
X248297D1*
X614203D2*
X689078D1*
X-673141Y521037D2*
X-648422D1*
X-551578D2*
X-501859D1*
X-142047D2*
X-54828D1*
X161703D2*
X173453D1*
X624203D2*
X689078D1*
X-673141Y511168D2*
X-651703D1*
X-548297D2*
X-501859D1*
X-142047D2*
X-54828D1*
X634047D2*
X689078D1*
X-673141Y501299D2*
X-652797D1*
X-547203D2*
X-501859D1*
X-60953D2*
X-54828D1*
X643891D2*
X689078D1*
X-673141Y491430D2*
X-652172D1*
X-547828D2*
X-501859D1*
X-60953D2*
X-54828D1*
X653734D2*
X689078D1*
X-673141Y481562D2*
X-649516D1*
X-550484D2*
X-501859D1*
X-60953D2*
X-54828D1*
X663578D2*
X689078D1*
X-673141Y471693D2*
X-644516D1*
X-555484D2*
X-501859D1*
X-60953D2*
X-54828D1*
X673422D2*
X689078D1*
X-673141Y461824D2*
X-636078D1*
X-563922D2*
X-501859D1*
X-60953D2*
X-54828D1*
X683266D2*
X689078D1*
X-673141Y451955D2*
X-620453D1*
X-579547D2*
X-511078D1*
X-60953D2*
X-54828D1*
X-667047Y442087D2*
X-631234D1*
X-568766D2*
X-520922D1*
X-60953D2*
X-54828D1*
X-657047Y432218D2*
X-641703D1*
X-558297D2*
X-526078D1*
X-60953D2*
X-54828D1*
X-552203Y422349D2*
X-526859D1*
X-723922Y412480D2*
X-712641D1*
X-548609D2*
X-526859D1*
X-723922Y402612D2*
X-702797D1*
X-547203D2*
X-526859D1*
X-723922Y392743D2*
X-692797D1*
X-547672D2*
X-526859D1*
X-723922Y382874D2*
X-682953D1*
X-550016D2*
X-526859D1*
X-723922Y373005D2*
X-645297D1*
X-554703D2*
X-526859D1*
X-723922Y363136D2*
X-637484D1*
X-562516D2*
X-526859D1*
X112016D2*
X173453D1*
X294516D2*
X310953D1*
X-723922Y353268D2*
X-623422D1*
X-576578D2*
X-526859D1*
X114203D2*
X173453D1*
X304359D2*
X310953D1*
X-723922Y343399D2*
X-629359D1*
X-570641D2*
X-526859D1*
X113891D2*
X173453D1*
X389047D2*
X564234D1*
X-723922Y333530D2*
X-640609D1*
X-559391D2*
X-526859D1*
X110609D2*
X173453D1*
X389047D2*
X560484D1*
X-723922Y323661D2*
X-647172D1*
X-552828D2*
X-526859D1*
X103891D2*
X173453D1*
X389047D2*
X559703D1*
X-723922Y313793D2*
X-650922D1*
X-549078D2*
X-526859D1*
X389047D2*
X561266D1*
X-723922Y303924D2*
X-652641D1*
X-547359D2*
X-526859D1*
X389047D2*
X565797D1*
X-723922Y294055D2*
X-652484D1*
X-547516D2*
X-526859D1*
X389047D2*
X564547D1*
X-723922Y284186D2*
X-650453D1*
X-549547D2*
X-528891D1*
X335922D2*
X560641D1*
X-723922Y274318D2*
X-646078D1*
X-553922D2*
X-538734D1*
X335922D2*
X559547D1*
X-723922Y264449D2*
X-638734D1*
X-561266D2*
X-548578D1*
X335922D2*
X561109D1*
X-723922Y254580D2*
X-626078D1*
X-573922D2*
X-558422D1*
X334516D2*
X565328D1*
X-723922Y244711D2*
X-652797D1*
X327328D2*
X564859D1*
X-723922Y234843D2*
X-652797D1*
X-38766D2*
X53922D1*
X317484D2*
X560797D1*
X-723922Y224974D2*
X-652797D1*
X-117359D2*
X-105141D1*
X-44859D2*
X51578D1*
X307641D2*
X559547D1*
X-723922Y215105D2*
X-652797D1*
X-127203D2*
X-92016D1*
X-57984D2*
X51578D1*
X298422D2*
X560797D1*
X-723922Y205236D2*
X-652797D1*
X-138453D2*
X51578D1*
X298422D2*
X564859D1*
X-723922Y195367D2*
X-652797D1*
X-271891D2*
X51578D1*
X298422D2*
X565328D1*
X-723922Y185499D2*
X-652797D1*
X-276578D2*
X51578D1*
X298422D2*
X561109D1*
X-723922Y175630D2*
X-652797D1*
X-276578D2*
X44078D1*
X305922D2*
X559547D1*
X-723922Y165761D2*
X-652797D1*
X-276578D2*
X37828D1*
X312172D2*
X560641D1*
X710922D2*
X723922D1*
X-723922Y155892D2*
X-652797D1*
X-276578D2*
X35016D1*
X314984D2*
X564547D1*
X700141D2*
X723922D1*
X-723922Y146024D2*
X-625297D1*
X-275172D2*
X-224828D1*
X-175172D2*
X34859D1*
X315141D2*
X572359D1*
X677641D2*
X723922D1*
X-723922Y136155D2*
X-635141D1*
X-261891D2*
X-238109D1*
X-161891D2*
X37047D1*
X312953D2*
X592516D1*
X607484D2*
X642516D1*
X657484D2*
X723922D1*
X-723922Y126286D2*
X-644984D1*
X-254234D2*
X-245766D1*
X-154234D2*
X42516D1*
X307484D2*
X723922D1*
X-723922Y116417D2*
X-654828D1*
X-149859D2*
X38141D1*
X311859D2*
X723922D1*
X-723922Y106549D2*
X-662484D1*
X-147516D2*
X35172D1*
X314828D2*
X723922D1*
X-723297Y96680D2*
X-663422D1*
X-147203D2*
X34703D1*
X315297D2*
X723922D1*
X-722047Y86811D2*
X-658109D1*
X-148922D2*
X36891D1*
X313109D2*
X723922D1*
X-719703Y76942D2*
X-648266D1*
X-352516D2*
X-347464D1*
X-252516D2*
X-247464D1*
X-152516D2*
X42047D1*
X307953D2*
X723922D1*
X-715641Y67073D2*
X-638422D1*
X-561578D2*
X-552797D1*
X-447203D2*
X-441128D1*
X-358922D2*
X-341078D1*
X-258922D2*
X-241078D1*
X-158922D2*
X52359D1*
X297641D2*
X723922D1*
X-709547Y57205D2*
X-628578D1*
X-571422D2*
X-552797D1*
X-447203D2*
X-430297D1*
X-369703D2*
X-330297D1*
X-269703D2*
X-230297D1*
X-169703D2*
X723922D1*
X-702047Y47336D2*
X-618578D1*
X-581422D2*
X723922D1*
X-689234Y37467D2*
X-603422D1*
X-596667D2*
X723922D1*
X-667047Y27598D2*
X723922D1*
X713077Y651764D2*
Y593639D1*
X724974Y581694D1*
X725000Y898343D1*
X722230Y919406D1*
X714765Y937395D1*
X713077Y937045D1*
Y793025D1*
X697296D1*
X698170Y791946D1*
X702413Y789304D1*
X706357Y786235D1*
X709961Y782772D1*
X713184Y778953D1*
X715992Y774819D1*
X718354Y770414D1*
X720244Y765788D1*
X721643Y760990D1*
X722533Y756072D1*
X722920Y750000D1*
X722659Y745009D1*
X721880Y740072D1*
X720591Y735244D1*
X718806Y730576D1*
X716545Y726119D1*
X713146Y721070D1*
X713077Y659975D1*
X713046Y651883D1*
X658546Y584954D2*
X636923D1*
Y595423D1*
X631873Y591854D1*
X627404Y589619D1*
X622683Y587983D1*
X617789Y586974D1*
X612806Y586609D1*
X607818Y586894D1*
X602909Y587825D1*
X598162Y589386D1*
X593659Y591549D1*
X589474Y594279D1*
X585679Y597530D1*
X582339Y601246D1*
X579510Y605364D1*
X577239Y609814D1*
X575565Y614522D1*
X574517Y619408D1*
X574113Y624388D1*
X574358Y629378D1*
X575250Y634294D1*
X576772Y639053D1*
X578900Y643574D1*
X583509Y650049D1*
X505033Y650112D1*
Y749888D1*
X620558D1*
Y714732D1*
X626267Y711483D1*
X629836Y707997D1*
X632544Y703806D1*
X634257Y699120D1*
X634892Y693823D1*
X635033Y656084D1*
X636836Y654589D1*
X636923Y665046D1*
Y720915D1*
X633729Y725649D1*
X631417Y730079D1*
X629579Y734727D1*
X628236Y739541D1*
X627401Y744468D1*
X627083Y749456D1*
X627287Y754449D1*
X628010Y759395D1*
X629244Y764238D1*
X630976Y768926D1*
X633187Y773408D1*
X635852Y777636D1*
X638943Y781563D1*
X642427Y785146D1*
X646264Y788348D1*
X652485Y792228D1*
X648077Y793025D1*
X636923D1*
Y810681D1*
X630660Y810679D1*
X625702Y811235D1*
X620989Y812875D1*
X616646Y815628D1*
X604220Y827844D1*
X582012Y850051D1*
X505033Y850112D1*
Y949888D1*
X620558D1*
Y874732D1*
X636855Y858544D1*
X637079Y873116D1*
X636923Y878954D1*
Y940045D1*
X712704D1*
X702880Y952882D1*
X687391Y964767D1*
X669354Y972236D1*
X648373Y974997D1*
X253136Y974987D1*
Y884830D1*
X284103Y915834D1*
X288143Y919015D1*
X290100Y920097D1*
X292435Y925112D1*
Y949888D1*
X407959D1*
Y850112D1*
X292435D1*
Y860893D1*
X291170Y858841D1*
Y659310D1*
X292435Y658112D1*
Y749888D1*
X407959D1*
Y650112D1*
X357678D1*
X363768Y648339D1*
X368305Y646247D1*
X372533Y643584D1*
X376379Y640394D1*
X379778Y636732D1*
X382673Y632660D1*
X385014Y628246D1*
X386763Y623566D1*
X387889Y618698D1*
X388392Y612500D1*
X388067Y607514D1*
X387097Y602613D1*
X385293Y597458D1*
X537500Y597392D1*
X542459Y596836D1*
X547171Y595196D1*
X551514Y592443D1*
X563940Y580227D1*
X690004Y454163D1*
X690108Y490000D1*
Y553281D1*
X659069Y584288D1*
X311959Y359954D2*
X311923Y371673D1*
X282169Y371746D1*
X282016Y371371D1*
X282172Y369313D1*
Y368532D1*
X288214Y366653D1*
X292557Y363900D1*
X304984Y351684D1*
X311923Y345025D1*
Y359931D1*
X388077Y356023D2*
Y293025D1*
X334921D1*
X334892Y262500D1*
X334336Y257541D1*
X332696Y252829D1*
X329943Y248486D1*
X317727Y236060D1*
X297287Y215620D1*
X297392Y182344D1*
X301723Y178942D1*
X305172Y175326D1*
X308135Y171303D1*
X310565Y166937D1*
X312423Y162299D1*
X313679Y157463D1*
X314392Y150000D1*
X314075Y145013D1*
X313130Y140107D1*
X311571Y135360D1*
X309423Y130848D1*
X305417Y125090D1*
X309173Y119594D1*
X311751Y114182D1*
X313477Y108442D1*
X314312Y102506D1*
X314189Y96007D1*
X313130Y90107D1*
X311187Y84436D1*
X308407Y79126D1*
X304853Y74299D1*
X300608Y70067D1*
X295770Y66528D1*
X290451Y63764D1*
X284774Y61840D1*
X278871Y60799D1*
X272878Y60665D1*
X266934Y61442D1*
X261178Y63113D1*
X255741Y65637D1*
X250750Y68957D1*
X249840Y69427D1*
X244913Y66012D1*
X239526Y63384D1*
X233802Y61604D1*
X227874Y60713D1*
X221880Y60732D1*
X215958Y61660D1*
X210246Y63475D1*
X204875Y66137D1*
X199994Y69563D1*
X194913Y66012D1*
X189526Y63384D1*
X183802Y61604D1*
X177874Y60713D1*
X171880Y60732D1*
X165958Y61660D1*
X160246Y63475D1*
X154875Y66137D1*
X149994Y69563D1*
X144913Y66012D1*
X139526Y63384D1*
X133802Y61604D1*
X127874Y60713D1*
X121880Y60732D1*
X115958Y61660D1*
X110246Y63475D1*
X104875Y66137D1*
X99994Y69563D1*
X95770Y66528D1*
X91365Y64168D1*
X86698Y62385D1*
X81842Y61207D1*
X76876Y60653D1*
X71880Y60732D1*
X66934Y61442D1*
X62118Y62774D1*
X57510Y64704D1*
X53182Y67202D1*
X49206Y70228D1*
X45645Y73732D1*
X42555Y77660D1*
X39988Y81946D1*
X37985Y86524D1*
X36577Y91318D1*
X35787Y96252D1*
X35628Y101246D1*
X36102Y106220D1*
X37202Y111094D1*
X38911Y115789D1*
X41200Y120231D1*
X44553Y124929D1*
X39988Y131946D1*
X37985Y136524D1*
X36577Y141318D1*
X35787Y146252D1*
X35628Y151246D1*
X36102Y156220D1*
X37202Y161094D1*
X38911Y165789D1*
X41200Y170231D1*
X44033Y174347D1*
X47364Y178071D1*
X52570Y182295D1*
X52720Y227236D1*
X53768Y232114D1*
X55966Y236762D1*
X56159Y241549D1*
X53412Y243341D1*
X-37268Y243419D1*
X-37903Y240113D1*
X-39501Y235379D1*
X-41701Y230892D1*
X-44464Y226730D1*
X-47745Y222961D1*
X-51487Y219651D1*
X-55627Y216854D1*
X-60096Y214619D1*
X-64817Y212983D1*
X-69711Y211974D1*
X-74694Y211609D1*
X-79682Y211894D1*
X-84591Y212825D1*
X-89338Y214386D1*
X-93841Y216549D1*
X-98026Y219279D1*
X-101821Y222530D1*
X-105161Y226246D1*
X-107990Y230364D1*
X-109853Y233480D1*
X-134166Y209166D1*
X-138066Y206053D1*
X-142558Y203881D1*
X-147575Y202756D1*
X-165000Y202608D1*
X-265781D1*
X-277617Y190715D1*
X-277608Y146719D1*
X-271119Y143070D1*
X-263400Y136737D1*
X-257038Y129042D1*
X-252269Y120270D1*
X-250023Y113617D1*
X-248015Y119589D1*
X-244942Y125872D1*
X-241051Y131685D1*
X-236413Y136921D1*
X-231113Y141486D1*
X-225247Y145296D1*
X-218922Y148281D1*
X-212252Y150389D1*
X-205359Y151579D1*
X-198369Y151831D1*
X-191409Y151140D1*
X-184605Y149519D1*
X-178080Y146996D1*
X-171955Y143619D1*
X-166340Y139448D1*
X-161338Y134559D1*
X-157038Y129042D1*
X-153521Y122996D1*
X-150849Y116532D1*
X-149071Y109767D1*
X-148220Y102824D1*
X-148298Y96004D1*
X-149306Y89082D1*
X-151236Y82359D1*
X-154054Y75957D1*
X-157707Y69993D1*
X-162130Y64574D1*
X-167242Y59800D1*
X-172951Y55757D1*
X-179151Y52519D1*
X-185730Y50145D1*
X-192569Y48678D1*
X-199544Y48145D1*
X-206526Y48556D1*
X-213390Y49902D1*
X-220011Y52160D1*
X-226267Y55288D1*
X-232045Y59230D1*
X-237240Y63913D1*
X-241758Y69253D1*
X-245516Y75152D1*
X-248446Y81504D1*
X-249993Y86224D1*
X-251953Y80492D1*
X-256582Y71646D1*
X-262821Y63850D1*
X-270438Y57395D1*
X-279151Y52519D1*
X-288637Y49404D1*
X-298544Y48164D1*
X-308505Y48846D1*
X-318151Y51424D1*
X-327124Y55803D1*
X-335092Y61820D1*
X-341758Y69253D1*
X-346877Y77826D1*
X-349937Y86175D1*
X-351953Y80492D1*
X-356582Y71646D1*
X-362821Y63850D1*
X-370438Y57395D1*
X-379151Y52519D1*
X-388637Y49404D1*
X-398544Y48164D1*
X-408505Y48846D1*
X-418151Y51424D1*
X-427124Y55803D1*
X-435092Y61820D1*
X-441758Y69253D1*
X-446877Y77826D1*
X-448135Y80855D1*
X-448143Y48143D1*
X-551857D1*
Y77987D1*
X-586995Y42703D1*
X-590965Y39689D1*
X-595598Y37851D1*
X-600555Y37325D1*
X-605471Y38149D1*
X-610898Y40893D1*
X-620076Y49775D1*
X-657297Y86995D1*
X-660311Y90965D1*
X-662149Y95598D1*
X-662675Y100555D1*
X-661851Y105471D1*
X-659107Y110898D1*
X-650225Y120076D1*
X-622052Y148250D1*
X-651857Y148143D1*
Y251857D1*
X-619200D1*
X-625400Y254790D1*
X-631253Y258619D1*
X-636538Y263202D1*
X-641157Y268453D1*
X-645028Y274279D1*
X-648080Y280573D1*
X-650257Y287220D1*
X-651520Y294100D1*
X-651845Y301087D1*
X-651227Y308055D1*
X-649677Y314875D1*
X-647224Y321426D1*
X-643911Y327586D1*
X-639799Y333244D1*
X-634963Y338298D1*
X-629491Y342655D1*
X-623482Y346235D1*
X-617046Y348975D1*
X-613734Y350003D1*
X-622743Y353397D1*
X-631253Y358619D1*
X-638604Y365376D1*
X-644524Y373416D1*
X-645000Y374108D1*
X-662500D1*
X-667469Y374589D1*
X-672253Y376015D1*
X-676675Y378333D1*
X-680809Y381691D1*
X-718309Y419191D1*
X-721482Y423045D1*
X-723499Y426664D1*
X-724999Y428688D1*
X-725000Y101682D1*
X-722230Y80594D1*
X-714764Y62605D1*
X-702879Y47117D1*
X-687390Y35232D1*
X-669353Y27762D1*
X-648372Y25001D1*
X724903Y25000D1*
X725000Y120000D1*
X724798Y180631D1*
X703334Y159166D1*
X699434Y156053D1*
X694942Y153881D1*
X689925Y152756D1*
X682344Y152608D1*
X678510Y147817D1*
X674840Y144427D1*
X670770Y141528D1*
X666365Y139168D1*
X661698Y137385D1*
X656842Y136207D1*
X651876Y135653D1*
X646880Y135732D1*
X641934Y136442D1*
X637118Y137774D1*
X632510Y139704D1*
X628182Y142202D1*
X624840Y144427D1*
X619913Y141012D1*
X614526Y138384D1*
X608802Y136604D1*
X602874Y135713D1*
X596880Y135732D1*
X590958Y136660D1*
X585246Y138475D1*
X579875Y141137D1*
X574970Y144582D1*
X570645Y148732D1*
X566999Y153490D1*
X564117Y158747D1*
X562067Y164379D1*
X560894Y170258D1*
X560628Y176246D1*
X561272Y182205D1*
X562814Y187998D1*
X565217Y193489D1*
X568425Y198553D1*
X569563Y200003D1*
X565950Y205193D1*
X563339Y210589D1*
X561577Y216318D1*
X560704Y222248D1*
X560742Y228242D1*
X561688Y234161D1*
X563522Y239868D1*
X566200Y245231D1*
X569563Y250003D1*
X565950Y255193D1*
X563339Y260589D1*
X561577Y266318D1*
X560704Y272248D1*
X560742Y278242D1*
X561688Y284161D1*
X563522Y289868D1*
X566200Y295231D1*
X569563Y300003D1*
X565950Y305193D1*
X563339Y310589D1*
X561577Y316318D1*
X560704Y322248D1*
X560742Y328242D1*
X561688Y334161D1*
X563522Y339868D1*
X566200Y345231D1*
X569563Y350003D1*
X565000Y352608D1*
X400000D1*
X395041Y353164D1*
X390197Y354886D1*
X388238Y355966D1*
X-61923Y426764D2*
X-57638Y423530D1*
X-53732D1*
X-53825Y475085D1*
Y526266D1*
X26019D1*
X24517Y532369D1*
X24113Y537350D1*
X24358Y542340D1*
X25250Y547256D1*
X26772Y552015D1*
X28900Y556536D1*
X31597Y560742D1*
X34817Y564563D1*
X38506Y567932D1*
X42601Y570795D1*
X45778Y572555D1*
X-15342Y633674D1*
X-18455Y637574D1*
X-20627Y642065D1*
X-21751Y647083D1*
X-21900Y664508D1*
Y674664D1*
X-37769Y674816D1*
X-59238Y674972D1*
X-61265Y674816D1*
X-90735D1*
Y779285D1*
X-98776Y780845D1*
X-103499Y782481D1*
X-108016Y784619D1*
X-112273Y787236D1*
X-116222Y790299D1*
X-119814Y793773D1*
X-123008Y797617D1*
X-125766Y801785D1*
X-128055Y806227D1*
X-129848Y810892D1*
X-131123Y815724D1*
X-131867Y820666D1*
X-132069Y825660D1*
X-131728Y830646D1*
X-130847Y835565D1*
X-129437Y840360D1*
X-127515Y844973D1*
X-125104Y849350D1*
X-122231Y853439D1*
X-118931Y857192D1*
X-115243Y860565D1*
X-111211Y863517D1*
X-106882Y866014D1*
X-102307Y868026D1*
X-97541Y869529D1*
X-92640Y870506D1*
X-87662Y870945D1*
X-82665Y870841D1*
X-77710Y870194D1*
X-72854Y869014D1*
X-68154Y867312D1*
X-63668Y865111D1*
X-59447Y862436D1*
X-55541Y859317D1*
X-51998Y855794D1*
X-48858Y851906D1*
X-46158Y847700D1*
X-43931Y843226D1*
X-42204Y838537D1*
X-40996Y833687D1*
X-40171Y825020D1*
X-40443Y820030D1*
X-41255Y815098D1*
X-42597Y810285D1*
X-44455Y805645D1*
X-47597Y800074D1*
X-34735Y800183D1*
X28727Y800027D1*
X35250Y800183D1*
X48531D1*
X45173Y806227D1*
X43381Y810892D1*
X42105Y815724D1*
X41362Y820666D1*
X41160Y825660D1*
X41501Y830646D1*
X42381Y835565D1*
X43791Y840360D1*
X45713Y844973D1*
X48125Y849350D1*
X50998Y853439D1*
X54297Y857192D1*
X57985Y860565D1*
X62018Y863517D1*
X66347Y866014D1*
X70921Y868026D1*
X75687Y869529D1*
X80589Y870506D1*
X85567Y870945D1*
X90563Y870841D1*
X95519Y870194D1*
X100375Y869014D1*
X105074Y867312D1*
X109560Y865111D1*
X113781Y862436D1*
X117687Y859317D1*
X121231Y855794D1*
X124371Y851906D1*
X127070Y847700D1*
X129297Y843226D1*
X131024Y838537D1*
X132233Y833687D1*
X133057Y825020D1*
X132786Y820030D1*
X131974Y815098D1*
X130108Y808980D1*
X135033Y806084D1*
X135634Y805586D1*
X135800Y824790D1*
X135643Y854659D1*
Y975128D1*
X108690Y974999D1*
X-134659Y974987D1*
X-134815Y809659D1*
X-134659Y779790D1*
Y650210D1*
X-252152D1*
X-251996Y824790D1*
X-252152Y854659D1*
Y935128D1*
X-254201Y930892D1*
X-256964Y926730D1*
X-260245Y922961D1*
X-263987Y919651D1*
X-268127Y916854D1*
X-272596Y914619D1*
X-277317Y912983D1*
X-282211Y911974D1*
X-287194Y911609D1*
X-292182Y911894D1*
X-297091Y912825D1*
X-301838Y914386D1*
X-306341Y916549D1*
X-310526Y919279D1*
X-314634Y922878D1*
X-316701Y918392D1*
X-319464Y914230D1*
X-322745Y910461D1*
X-326487Y907151D1*
X-330627Y904354D1*
X-335096Y902119D1*
X-339817Y900483D1*
X-344711Y899474D1*
X-351720Y899225D1*
X-419748Y831135D1*
X-419797Y759954D1*
X-555006D1*
Y811673D1*
X-562031Y811608D1*
X-561923Y772116D1*
Y693025D1*
X-638077D1*
Y750306D1*
X-674198Y714185D1*
X-674108Y610000D1*
Y448281D1*
X-651750Y425867D1*
X-644844Y425892D1*
X-642242Y430079D1*
X-635695Y437617D1*
X-627824Y443760D1*
X-618922Y448281D1*
X-613729Y449985D1*
X-620929Y452554D1*
X-627124Y455803D1*
X-632825Y459855D1*
X-637929Y464638D1*
X-642343Y470064D1*
X-645987Y476035D1*
X-648794Y482441D1*
X-650713Y489168D1*
X-651709Y496091D1*
X-651765Y503086D1*
X-650879Y510024D1*
X-649067Y516780D1*
X-646362Y523231D1*
X-642814Y529259D1*
X-638487Y534754D1*
X-633460Y539618D1*
X-627824Y543760D1*
X-621682Y547107D1*
X-615145Y549596D1*
X-608333Y551183D1*
X-601369Y551839D1*
X-594380Y551551D1*
X-587493Y550326D1*
X-580834Y548185D1*
X-574524Y545167D1*
X-568677Y541328D1*
X-563400Y536737D1*
X-558789Y531477D1*
X-554928Y525645D1*
X-551887Y519346D1*
X-549721Y512695D1*
X-548470Y505813D1*
X-548153Y499000D1*
X-548759Y492032D1*
X-550298Y485208D1*
X-552740Y478654D1*
X-556043Y472488D1*
X-560145Y466823D1*
X-564973Y461761D1*
X-570438Y457395D1*
X-576440Y453804D1*
X-582872Y451054D1*
X-586242Y450004D1*
X-579909Y447807D1*
X-571119Y443070D1*
X-563400Y436737D1*
X-557038Y429042D1*
X-552269Y420270D1*
X-549269Y410747D1*
X-548150Y400825D1*
X-548384Y395008D1*
X-550298Y385208D1*
X-554054Y375957D1*
X-559513Y367597D1*
X-566473Y360439D1*
X-574677Y354747D1*
X-583819Y350733D1*
X-586378Y350027D1*
X-579909Y347807D1*
X-573658Y344668D1*
X-567886Y340716D1*
X-562699Y336024D1*
X-558190Y330677D1*
X-554442Y324771D1*
X-551523Y318414D1*
X-549486Y311723D1*
X-548368Y304818D1*
X-548182Y298000D1*
X-548922Y291045D1*
X-550592Y284253D1*
X-553161Y277747D1*
X-556582Y271646D1*
X-560793Y266060D1*
X-565717Y261093D1*
X-571265Y256833D1*
X-577335Y253358D1*
X-580736Y251856D1*
X-560138Y251857D1*
X-525963Y286036D1*
X-525892Y425492D1*
X-525411Y430461D1*
X-523985Y435245D1*
X-521667Y439667D1*
X-518309Y443801D1*
X-500962Y461147D1*
X-500892Y567500D1*
Y600000D1*
X-500411Y604969D1*
X-498985Y609753D1*
X-496667Y614175D1*
X-493309Y618309D1*
X-475962Y635655D1*
X-475892Y653594D1*
X-480203Y653655D1*
Y733746D1*
X-419797D1*
Y653655D1*
X-424016D1*
X-424108Y646357D1*
X-415357Y646316D1*
X-375928Y685689D1*
X-375892Y692969D1*
X-388077Y693025D1*
X-387921Y773116D1*
X-388077Y778954D1*
Y840046D1*
X-311923D1*
Y693025D1*
X-323954D1*
X-324108Y675000D1*
X-324589Y670031D1*
X-326015Y665247D1*
X-328333Y660825D1*
X-331691Y656691D1*
X-386268Y602115D1*
X-390122Y598942D1*
X-394513Y596567D1*
X-399278Y595080D1*
X-404576Y594532D1*
X-443795D1*
X-449194Y589189D1*
X-449108Y572656D1*
X-444612Y578421D1*
X-440923Y581791D1*
X-436828Y584653D1*
X-432396Y586959D1*
X-427701Y588670D1*
X-422824Y589757D1*
X-417848Y590201D1*
X-412855Y589996D1*
X-407932Y589143D1*
X-403161Y587659D1*
X-398624Y585567D1*
X-394396Y582904D1*
X-390550Y579715D1*
X-387151Y576053D1*
X-384256Y571980D1*
X-381915Y567566D1*
X-380166Y562886D1*
X-379041Y558018D1*
X-378537Y551820D1*
X-378862Y546834D1*
X-379832Y541933D1*
X-381180Y537939D1*
X-365045Y538077D1*
X-309954D1*
Y522296D1*
X-290156Y522392D1*
X-290046Y538077D1*
X-223952D1*
X-225483Y544408D1*
X-225887Y549388D1*
X-225642Y554378D1*
X-224750Y559294D1*
X-223228Y564053D1*
X-221100Y568574D1*
X-218403Y572780D1*
X-215183Y576601D1*
X-211494Y579971D1*
X-207399Y582833D1*
X-202966Y585139D1*
X-198272Y586850D1*
X-193395Y587937D1*
X-188419Y588381D1*
X-183426Y588175D1*
X-178503Y587323D1*
X-173732Y585839D1*
X-169195Y583747D1*
X-164967Y581084D1*
X-161121Y577894D1*
X-157722Y574232D1*
X-154827Y570160D1*
X-152486Y565746D1*
X-150737Y561066D1*
X-149611Y556198D1*
X-149108Y550000D1*
X-149433Y545014D1*
X-151052Y538190D1*
X-143025Y538077D1*
Y467296D1*
X-138115Y462232D1*
X-138077Y506975D1*
X-61923D1*
Y426883D1*
X-633077Y840046D2*
X-621046D1*
X-618309Y843309D1*
X-605809Y855809D1*
X-601955Y858982D1*
X-597563Y861357D1*
X-592798Y862844D1*
X-587500Y863392D1*
X-462345Y863377D1*
X-457702Y866415D1*
X-388428Y935689D1*
X-388142Y941878D1*
X-387250Y946794D1*
X-385728Y951553D1*
X-383600Y956074D1*
X-380903Y960280D1*
X-377683Y964101D1*
X-373994Y967471D1*
X-369899Y970333D1*
X-365466Y972639D1*
X-357876Y974995D1*
X-648317Y975000D1*
X-669406Y972230D1*
X-687395Y964764D1*
X-702884Y952879D1*
X-714766Y937390D1*
X-722237Y919353D1*
X-724997Y898371D1*
X-724999Y731656D1*
X-722202Y738322D1*
X-718309Y743309D1*
X-643309Y818309D1*
X-640145Y820983D1*
X-638077Y824954D1*
Y840046D1*
X-633077D1*
X91719Y692839D2*
Y674816D1*
X71563D1*
X76268Y673339D1*
X80805Y671247D1*
X85033Y668584D1*
X88879Y665394D1*
X92278Y661732D1*
X95173Y657660D1*
X97514Y653246D1*
X99263Y648566D1*
X100389Y643698D1*
X100892Y637500D1*
X100567Y632514D1*
X99597Y627613D1*
X97999Y622879D1*
X95799Y618392D1*
X93036Y614230D1*
X89755Y610461D1*
X86013Y607151D1*
X81873Y604354D1*
X78940Y602887D1*
X101179Y580489D1*
X165834Y515834D1*
X168947Y511934D1*
X171119Y507442D1*
X172243Y502425D1*
X172392Y484219D1*
X174562Y482105D1*
X174678Y500675D1*
X174522Y526266D1*
X244773Y526440D1*
X308436Y590103D1*
X301388Y590664D1*
X296676Y592304D1*
X292333Y595057D1*
X279906Y607273D1*
X252944Y634235D1*
X249831Y638134D1*
X247659Y642626D1*
X246535Y647643D1*
X246386Y650224D1*
X135643Y650210D1*
Y694429D1*
X131873Y691854D1*
X127404Y689619D1*
X122683Y687983D1*
X117789Y686974D1*
X112806Y686609D1*
X107818Y686894D1*
X102909Y687825D1*
X98162Y689386D1*
X91697Y692829D1*
X174521Y317603D2*
X174678Y321542D1*
X174521Y347132D1*
Y371694D1*
X106628Y371746D1*
X110014Y365746D1*
X111763Y361066D1*
X112889Y356198D1*
X113392Y350000D1*
X113067Y345014D1*
X112097Y340113D1*
X110499Y335379D1*
X108299Y330892D1*
X105536Y326730D1*
X102255Y322961D1*
X98513Y319651D1*
X95537Y317641D1*
X174494Y317668D1*
X-550006Y733746D2*
X-494600D1*
Y653655D1*
X-555006D1*
Y733746D1*
X-550006D1*
X636942Y691929D2*
D16*
X713058D1*
X350000Y333071D2*
Y293045D1*
Y333071D2*
X388058D1*
X-100000Y506955D2*
Y466929D1*
X-138058D2*
X-61942D1*
X-600000Y733071D2*
Y693045D1*
X-638058Y733071D2*
X-561942D1*
X-350000Y840026D2*
Y800000D1*
X-388057D2*
X-311942D1*
X-62500Y737500D2*
Y674836D1*
X-90715Y737500D2*
X-62500D1*
X560627Y325000D2*
X600000D1*
X560627Y275000D2*
X600000D1*
X560627Y225000D2*
X600000D1*
Y175000D2*
Y135627D1*
X560627Y175000D2*
X600000D1*
X125000Y100000D2*
Y60627D1*
X175000Y100000D2*
Y60627D1*
X225000Y100000D2*
Y60627D1*
X275000Y100000D2*
Y60627D1*
Y100000D2*
X314373D1*
X-200000Y151837D2*
Y48163D1*
Y100000D2*
X-148163D1*
X-651837Y300000D2*
X-548163D1*
X-600000Y551837D2*
Y500000D1*
X-651837D2*
X-548163D1*
X675000Y940026D2*
Y900000D1*
X636943D2*
X713058D1*
X350197Y749868D2*
Y700000D1*
X292454D2*
X407940D1*
X228346Y372047D2*
X282152D1*
X-487402Y800000D2*
Y759974D1*
D17*
X675000Y625000D3*
Y691929D3*
X350000Y400000D3*
Y333071D3*
X-100000Y400000D3*
Y466929D3*
X-600000Y800000D3*
Y733071D3*
X-350000D3*
Y800000D3*
D18*
Y500000D3*
X-416929D3*
X-350000Y400000D3*
X-416929D3*
X-350000Y300000D3*
X-416929D3*
D19*
X63484Y737500D3*
X492D3*
X31988D3*
X-31004D3*
D20*
X-193406D3*
X194390D3*
D21*
Y904823D3*
X-193406D3*
D19*
X-62500Y737500D3*
D22*
X87106Y825020D3*
X-86122D3*
D23*
X600000Y375000D3*
X650000D3*
X600000Y325000D3*
X650000D3*
X600000Y275000D3*
X650000D3*
X600000Y225000D3*
X650000D3*
X600000Y175000D3*
X650000D3*
X75000Y100000D3*
Y150000D3*
X125000Y100000D3*
Y150000D3*
X175000Y100000D3*
Y150000D3*
X225000Y100000D3*
Y150000D3*
X275000Y100000D3*
Y150000D3*
D24*
X-500000Y100000D3*
D25*
X-400000D3*
X-300000D3*
X-200000D3*
D24*
X-600000Y200000D3*
D25*
Y300000D3*
Y400000D3*
Y500000D3*
D18*
X-250000D3*
X-183071D3*
X-250000Y400000D3*
X-183071D3*
X-250000Y300000D3*
X-183071D3*
D17*
X675000Y833071D3*
Y900000D3*
D26*
X350197D3*
X562795D3*
X350197Y700000D3*
X562795D3*
D27*
X0Y500000D3*
Y474409D3*
Y448819D3*
Y423228D3*
Y397638D3*
Y372047D3*
Y346457D3*
Y320866D3*
Y295276D3*
Y269685D3*
X228354D3*
X228346Y295276D3*
Y320866D3*
Y346457D3*
Y372047D3*
Y397638D3*
Y423228D3*
Y448819D3*
Y474409D3*
Y500000D3*
D29*
X-450000Y800000D3*
X-487402D3*
X-524803D3*
Y693701D3*
X-450000D3*
D67*
X-600000Y100000D3*
D30*
X675000Y750000D3*
M02*
