G04 DipTrace Beta 2.9.0.0*
G04 TopSilk.gbr*
%MOIN*%
G04 #@! TF.FileFunction,Legend,Top*
G04 #@! TF.Part,Single*
%ADD10C,0.009843*%
%ADD15C,0.01*%
%ADD28C,0.015401*%
%ADD65C,0.006176*%
%ADD66C,0.004632*%
%FSLAX26Y26*%
G04*
G70*
G90*
G75*
G01*
G04 TopSilk*
%LPD*%
X-316535Y515748D2*
D10*
Y484252D1*
Y415748D2*
Y384252D1*
Y315748D2*
Y284252D1*
X725007Y525000D2*
X524979D1*
Y25000D1*
X725007D1*
Y525000D1*
X500018Y400000D2*
X524979Y375000D1*
X500018Y350000D1*
Y400000D1*
G36*
X522661Y294700D2*
X495079D1*
Y255300D1*
X522661D1*
Y294700D1*
G37*
X-74999Y225001D2*
D10*
X425004D1*
Y24980D1*
X-74999D1*
Y225001D1*
X50001Y14D2*
X75002Y24980D1*
X100002Y14D1*
X50001D1*
G36*
X155294Y22661D2*
X194710D1*
Y-4915D1*
X155294D1*
Y22661D1*
G37*
X-550018Y150005D2*
D10*
X-149982D1*
Y50000D1*
X-550018D1*
Y150005D1*
X-650005Y149982D2*
X-550000D1*
Y550018D1*
X-650005D1*
Y149982D1*
X51191Y514772D2*
Y254913D1*
X177163Y514772D2*
Y254913D1*
X51191D2*
X177163D1*
X51191Y514772D2*
X94488D1*
X133866D2*
X177163D1*
X94488D2*
G03X133866Y514772I19689J-9D01*
G01*
D28*
X-423086Y816625D3*
X-428349Y762560D2*
D10*
X-546457D1*
X-428349Y731069D2*
X-546457D1*
Y762560D2*
Y731069D1*
X-428349Y762560D2*
Y731069D1*
X-412500Y37500D2*
D15*
X-400000Y12500D1*
X-387500Y37500D1*
X-312500Y12500D2*
X-300000Y37500D1*
X-287500Y12500D1*
X-500000Y37500D2*
Y12500D1*
X-512500Y25000D2*
X-487500D1*
X-212500D2*
X-187500D1*
X-687500Y287500D2*
Y312500D1*
Y487500D2*
Y512500D1*
X-668751Y56249D2*
X-643751Y62500D1*
X-650000Y37500D1*
X712535Y661840D2*
D65*
X708733Y659938D1*
X704886Y656092D1*
X702985Y652289D1*
Y644640D1*
X704886Y640793D1*
X708733Y636990D1*
X712535Y635045D1*
X718283Y633144D1*
X727878D1*
X733582Y635045D1*
X737429Y636990D1*
X741231Y640793D1*
X743177Y644640D1*
Y652289D1*
X741231Y656091D1*
X737429Y659938D1*
X733582Y661840D1*
X710678Y674191D2*
X708733Y678038D1*
X703029Y683786D1*
X743177D1*
X331287Y461310D2*
X327485Y459409D1*
X323638Y455562D1*
X321737Y451760D1*
Y444111D1*
X323638Y440264D1*
X327485Y436461D1*
X331287Y434516D1*
X337035Y432615D1*
X346630D1*
X352334Y434516D1*
X356180Y436461D1*
X359983Y440264D1*
X361929Y444111D1*
Y451760D1*
X359983Y455562D1*
X356181Y459409D1*
X352334Y461310D1*
X331331Y475607D2*
X329430D1*
X325583Y477509D1*
X323682Y479410D1*
X321781Y483257D1*
Y490906D1*
X323682Y494708D1*
X325583Y496610D1*
X329430Y498555D1*
X333233D1*
X337079Y496610D1*
X342783Y492807D1*
X361929Y473662D1*
Y500456D1*
X-118713Y328240D2*
X-122515Y326338D1*
X-126362Y322492D1*
X-128263Y318689D1*
Y311040D1*
X-126362Y307193D1*
X-122515Y303390D1*
X-118713Y301445D1*
X-112965Y299544D1*
X-103370D1*
X-97666Y301445D1*
X-93820Y303390D1*
X-90017Y307193D1*
X-88071Y311040D1*
Y318689D1*
X-90017Y322492D1*
X-93819Y326338D1*
X-97666Y328240D1*
X-128219Y344438D2*
Y365440D1*
X-112921Y353988D1*
Y359736D1*
X-111019Y363539D1*
X-109118Y365440D1*
X-103370Y367386D1*
X-99568D1*
X-93819Y365440D1*
X-89973Y361638D1*
X-88071Y355890D1*
Y350141D1*
X-89973Y344438D1*
X-91918Y342536D1*
X-95721Y340591D1*
X-668713Y760360D2*
X-672515Y758459D1*
X-676362Y754612D1*
X-678263Y750809D1*
Y743160D1*
X-676362Y739313D1*
X-672515Y735511D1*
X-668713Y733565D1*
X-662965Y731664D1*
X-653370D1*
X-647666Y733565D1*
X-643820Y735511D1*
X-640017Y739313D1*
X-638071Y743160D1*
Y750809D1*
X-640017Y754612D1*
X-643819Y758459D1*
X-647666Y760360D1*
X-638071Y791857D2*
X-678219D1*
X-651469Y772711D1*
Y801407D1*
X-418713Y761310D2*
X-422515Y759409D1*
X-426362Y755562D1*
X-428263Y751760D1*
Y744111D1*
X-426362Y740264D1*
X-422515Y736461D1*
X-418713Y734516D1*
X-412965Y732615D1*
X-403370D1*
X-397666Y734516D1*
X-393820Y736461D1*
X-390017Y740264D1*
X-388071Y744111D1*
Y751760D1*
X-390017Y755562D1*
X-393819Y759409D1*
X-397666Y761310D1*
X-428219Y796610D2*
Y777509D1*
X-411019Y775607D1*
X-412921Y777509D1*
X-414866Y783257D1*
Y788960D1*
X-412921Y794708D1*
X-409118Y798555D1*
X-403370Y800456D1*
X-399568D1*
X-393819Y798555D1*
X-389973Y794708D1*
X-388071Y788960D1*
Y783257D1*
X-389973Y777509D1*
X-391918Y775607D1*
X-395721Y773662D1*
X-526929Y528264D2*
Y488071D1*
X-513532D1*
X-507784Y490017D1*
X-503937Y493820D1*
X-502036Y497666D1*
X-500135Y503370D1*
Y512965D1*
X-502036Y518713D1*
X-503937Y522515D1*
X-507784Y526362D1*
X-513532Y528264D1*
X-526929D1*
X-487783Y520570D2*
X-483937Y522515D1*
X-478189Y528219D1*
Y488071D1*
X-535529Y428264D2*
Y388071D1*
X-522132D1*
X-516384Y390017D1*
X-512537Y393820D1*
X-510636Y397666D1*
X-508735Y403370D1*
Y412965D1*
X-510636Y418713D1*
X-512537Y422515D1*
X-516384Y426362D1*
X-522132Y428264D1*
X-535529D1*
X-494438Y418669D2*
Y420570D1*
X-492537Y424417D1*
X-490635Y426318D1*
X-486789Y428219D1*
X-479139D1*
X-475337Y426318D1*
X-473435Y424417D1*
X-471490Y420570D1*
Y416767D1*
X-473435Y412921D1*
X-477238Y407217D1*
X-496383Y388071D1*
X-469589D1*
X-535529Y328264D2*
Y288071D1*
X-522132D1*
X-516384Y290017D1*
X-512537Y293820D1*
X-510636Y297666D1*
X-508735Y303370D1*
Y312965D1*
X-510636Y318713D1*
X-512537Y322515D1*
X-516384Y326362D1*
X-522132Y328264D1*
X-535529D1*
X-492537Y328219D2*
X-471534D1*
X-482986Y312921D1*
X-477238D1*
X-473435Y311019D1*
X-471534Y309118D1*
X-469589Y303370D1*
Y299568D1*
X-471534Y293820D1*
X-475337Y289973D1*
X-481085Y288071D1*
X-486833D1*
X-492537Y289973D1*
X-494438Y291918D1*
X-496383Y295721D1*
X-908Y840173D2*
Y809576D1*
X-2810Y803828D1*
X-4755Y801926D1*
X-8558Y799981D1*
X-12404D1*
X-16207Y801926D1*
X-18108Y803828D1*
X-20054Y809576D1*
Y813378D1*
X11443Y832479D2*
X15290Y834425D1*
X21038Y840129D1*
Y799981D1*
X675039Y83578D2*
Y52981D1*
X673138Y47233D1*
X671192Y45332D1*
X667390Y43386D1*
X663543D1*
X659740Y45332D1*
X657839Y47233D1*
X655894Y52981D1*
Y56784D1*
X689336Y73984D2*
Y75885D1*
X691237Y79732D1*
X693138Y81633D1*
X696985Y83534D1*
X704635D1*
X708437Y81633D1*
X710338Y79732D1*
X712284Y75885D1*
Y72082D1*
X710338Y68236D1*
X706536Y62532D1*
X687390Y43386D1*
X714185D1*
X367018Y83579D2*
Y52982D1*
X365117Y47234D1*
X363171Y45333D1*
X359369Y43387D1*
X355522D1*
X351719Y45333D1*
X349818Y47234D1*
X347873Y52982D1*
Y56784D1*
X383216Y83535D2*
X404219D1*
X392767Y68236D1*
X398515D1*
X402317Y66335D1*
X404219Y64434D1*
X406164Y58686D1*
Y54883D1*
X404219Y49135D1*
X400416Y45288D1*
X394668Y43387D1*
X388920D1*
X383216Y45288D1*
X381315Y47234D1*
X379369Y51036D1*
X-123451Y133578D2*
Y102981D1*
X-125352Y97233D1*
X-127298Y95332D1*
X-131100Y93386D1*
X-134947D1*
X-138750Y95332D1*
X-140651Y97233D1*
X-142596Y102981D1*
Y106784D1*
X-91954Y93386D2*
Y133534D1*
X-111100Y106784D1*
X-82404D1*
X-610000Y622949D2*
Y592351D1*
X-611902Y586603D1*
X-613847Y584702D1*
X-617650Y582757D1*
X-621496D1*
X-625299Y584702D1*
X-627200Y586603D1*
X-629146Y592351D1*
Y596154D1*
X-574701Y622904D2*
X-593802D1*
X-595703Y605704D1*
X-593802Y607606D1*
X-588054Y609551D1*
X-582350D1*
X-576602Y607606D1*
X-572756Y603803D1*
X-570854Y598055D1*
Y594253D1*
X-572756Y588505D1*
X-576602Y584658D1*
X-582350Y582757D1*
X-588054D1*
X-593802Y584658D1*
X-595703Y586603D1*
X-597649Y590406D1*
X722130Y832615D2*
Y849814D1*
X720184Y855562D1*
X718283Y857508D1*
X714481Y859409D1*
X710634D1*
X706831Y857508D1*
X704886Y855562D1*
X702985Y849814D1*
Y832615D1*
X743177D1*
X722130Y846012D2*
X743177Y859409D1*
Y890906D2*
X703029D1*
X729779Y871761D1*
Y900456D1*
X608920Y821748D2*
X605118Y825595D1*
X599370Y827496D1*
X591720D1*
X585972Y825595D1*
X582126Y821748D1*
Y817945D1*
X584071Y814098D1*
X585972Y812197D1*
X589775Y810296D1*
X601271Y806449D1*
X605118Y804548D1*
X607019Y802602D1*
X608920Y798800D1*
Y793052D1*
X605118Y789249D1*
X599370Y787304D1*
X591720D1*
X585972Y789249D1*
X582126Y793052D1*
X621272Y819802D2*
X625118Y821748D1*
X630866Y827452D1*
Y787304D1*
X600320Y609248D2*
X596518Y613095D1*
X590770Y614996D1*
X583120D1*
X577372Y613095D1*
X573526Y609248D1*
Y605445D1*
X575471Y601598D1*
X577372Y599697D1*
X581175Y597796D1*
X592671Y593949D1*
X596518Y592048D1*
X598419Y590102D1*
X600320Y586300D1*
Y580552D1*
X596518Y576749D1*
X590770Y574804D1*
X583120D1*
X577372Y576749D1*
X573526Y580552D1*
X614617Y605401D2*
Y607302D1*
X616519Y611149D1*
X618420Y613050D1*
X622267Y614952D1*
X629916D1*
X633718Y613050D1*
X635620Y611149D1*
X637565Y607302D1*
Y603500D1*
X635620Y599653D1*
X631817Y593949D1*
X612672Y574804D1*
X639466D1*
X89807Y573351D2*
Y544655D1*
X91708Y538907D1*
X95555Y535104D1*
X101303Y533159D1*
X105105D1*
X110853Y535104D1*
X114700Y538907D1*
X116601Y544655D1*
Y573351D1*
X128953Y565657D2*
X132800Y567603D1*
X138548Y573307D1*
Y533159D1*
X-513892Y882901D2*
Y854205D1*
X-511990Y848457D1*
X-508144Y844655D1*
X-502396Y842709D1*
X-498593D1*
X-492845Y844655D1*
X-488998Y848457D1*
X-487097Y854205D1*
Y882901D1*
X-472800Y873307D2*
Y875208D1*
X-470899Y879055D1*
X-468998Y880956D1*
X-465151Y882857D1*
X-457501D1*
X-453699Y880956D1*
X-451798Y879055D1*
X-449852Y875208D1*
Y871405D1*
X-451798Y867558D1*
X-455600Y861855D1*
X-474746Y842709D1*
X-447951D1*
X-664406Y399215D2*
Y418316D1*
X-681606Y420217D1*
X-679705Y418316D1*
X-677760Y412568D1*
Y406864D1*
X-679705Y401116D1*
X-683508Y397269D1*
X-689256Y395368D1*
X-693058D1*
X-698806Y397269D1*
X-702653Y401116D1*
X-704554Y406864D1*
Y412568D1*
X-702653Y418316D1*
X-700707Y420217D1*
X-696905Y422163D1*
X-672899Y234824D2*
Y213821D1*
X-688197Y225273D1*
Y219525D1*
X-690099Y215723D1*
X-692000Y213821D1*
X-697748Y211876D1*
X-701550D1*
X-707298Y213821D1*
X-711145Y217624D1*
X-713046Y223372D1*
Y229120D1*
X-711145Y234824D1*
X-709200Y236725D1*
X-705397Y238671D1*
X-709200Y197623D2*
X-711145Y199525D1*
X-713046Y197623D1*
X-711145Y195678D1*
X-709200Y197623D1*
X-672899Y179480D2*
Y158477D1*
X-688197Y169929D1*
Y164181D1*
X-690099Y160379D1*
X-692000Y158477D1*
X-697748Y156532D1*
X-701550D1*
X-707298Y158477D1*
X-711145Y162280D1*
X-713046Y168028D1*
Y173776D1*
X-711145Y179480D1*
X-709200Y181381D1*
X-705397Y183326D1*
X471499Y495273D2*
D66*
X501643D1*
X471499Y523206D2*
Y504536D1*
X501643D1*
X485858D2*
Y516010D1*
X382733Y269456D2*
Y239312D1*
X372685Y269456D2*
X392781D1*
X423566Y262293D2*
X422140Y265145D1*
X419255Y268030D1*
X416403Y269456D1*
X410666D1*
X407781Y268030D1*
X404929Y265145D1*
X403470Y262293D1*
X402044Y257982D1*
Y250786D1*
X403470Y246508D1*
X404929Y243623D1*
X407781Y240771D1*
X410666Y239312D1*
X416403D1*
X419255Y240771D1*
X422140Y243623D1*
X423566Y246508D1*
Y250786D1*
X416403D1*
X442878Y269456D2*
Y239312D1*
X432830Y269456D2*
X452926D1*
M02*
